<mxfile host="app.diagrams.net" agent="Mozilla/5.0 (Windows NT 10.0; Win64; x64) AppleWebKit/537.36 (KHTML, like Gecko) Chrome/132.0.0.0 Safari/537.36" version="26.0.7">
  <diagram name="Page-1" id="W0Lm02oLrqZboVxZn0hC">
    <mxGraphModel dx="1154" dy="532" grid="1" gridSize="10" guides="1" tooltips="1" connect="1" arrows="1" fold="1" page="1" pageScale="1" pageWidth="827" pageHeight="1169" math="0" shadow="0">
      <root>
        <mxCell id="0" />
        <mxCell id="1" parent="0" />
        <mxCell id="A1wWBjNQIWdNoJpYyP1X-2" value="" style="rounded=0;whiteSpace=wrap;html=1;" parent="1" vertex="1">
          <mxGeometry x="110" y="120" width="570" height="390" as="geometry" />
        </mxCell>
        <mxCell id="A1wWBjNQIWdNoJpYyP1X-6" value="&lt;b&gt;UC : Serveur traitement&lt;/b&gt;" style="shape=partialRectangle;whiteSpace=wrap;html=1;top=0;left=0;fillColor=none;" parent="1" vertex="1">
          <mxGeometry x="110" y="120" width="140" height="30" as="geometry" />
        </mxCell>
        <mxCell id="A1wWBjNQIWdNoJpYyP1X-20" value="IHM" style="shape=umlActor;verticalLabelPosition=bottom;verticalAlign=top;html=1;outlineConnect=0;" parent="1" vertex="1">
          <mxGeometry x="30" y="405" width="30" height="60" as="geometry" />
        </mxCell>
        <mxCell id="A1wWBjNQIWdNoJpYyP1X-22" value="" style="endArrow=none;html=1;rounded=0;exitX=0;exitY=0.5;exitDx=0;exitDy=0;" parent="1" source="A1wWBjNQIWdNoJpYyP1X-30" target="A1wWBjNQIWdNoJpYyP1X-20" edge="1">
          <mxGeometry width="50" height="50" relative="1" as="geometry">
            <mxPoint x="145" y="440" as="sourcePoint" />
            <mxPoint x="410" y="270" as="targetPoint" />
          </mxGeometry>
        </mxCell>
        <mxCell id="A1wWBjNQIWdNoJpYyP1X-25" value="Recevoir les données archivées brutes" style="shape=ellipse;html=1;strokeWidth=3;fontStyle=1;whiteSpace=wrap;align=center;perimeter=ellipsePerimeter;" parent="1" vertex="1">
          <mxGeometry x="130" y="250" width="130" height="70" as="geometry" />
        </mxCell>
        <mxCell id="A1wWBjNQIWdNoJpYyP1X-26" value="" style="edgeStyle=none;html=1;endArrow=none;verticalAlign=bottom;rounded=0;exitX=0.5;exitY=0.5;exitDx=0;exitDy=0;exitPerimeter=0;" parent="1" source="ZLsyZE4Ogy_-Gi288YGF-1" target="A1wWBjNQIWdNoJpYyP1X-25" edge="1">
          <mxGeometry width="160" relative="1" as="geometry">
            <mxPoint x="764.9999999999998" y="274.9999999999999" as="sourcePoint" />
            <mxPoint x="460" y="300" as="targetPoint" />
          </mxGeometry>
        </mxCell>
        <mxCell id="A1wWBjNQIWdNoJpYyP1X-30" value="Recevoir les données traitées" style="shape=ellipse;html=1;strokeWidth=3;fontStyle=1;whiteSpace=wrap;align=center;perimeter=ellipsePerimeter;" parent="1" vertex="1">
          <mxGeometry x="160" y="400" width="140" height="70" as="geometry" />
        </mxCell>
        <mxCell id="A1wWBjNQIWdNoJpYyP1X-32" value="Traiter les données météorologique" style="shape=ellipse;html=1;strokeWidth=3;fontStyle=1;whiteSpace=wrap;align=center;perimeter=ellipsePerimeter;" parent="1" vertex="1">
          <mxGeometry x="260" y="165" width="130" height="70" as="geometry" />
        </mxCell>
        <mxCell id="A1wWBjNQIWdNoJpYyP1X-33" value="Traiter les données archivés" style="shape=ellipse;html=1;strokeWidth=3;fontStyle=1;whiteSpace=wrap;align=center;perimeter=ellipsePerimeter;" parent="1" vertex="1">
          <mxGeometry x="340" y="320" width="130" height="60" as="geometry" />
        </mxCell>
        <mxCell id="A1wWBjNQIWdNoJpYyP1X-34" value="Traiter les données du terrain" style="shape=ellipse;html=1;strokeWidth=3;fontStyle=1;whiteSpace=wrap;align=center;perimeter=ellipsePerimeter;" parent="1" vertex="1">
          <mxGeometry x="470" y="170" width="120" height="60" as="geometry" />
        </mxCell>
        <mxCell id="A1wWBjNQIWdNoJpYyP1X-37" value="&amp;lt;&amp;lt;include&amp;gt;&amp;gt;" style="edgeStyle=none;html=1;endArrow=open;verticalAlign=bottom;dashed=1;labelBackgroundColor=none;rounded=0;exitX=0.5;exitY=0;exitDx=0;exitDy=0;entryX=0.462;entryY=1.028;entryDx=0;entryDy=0;entryPerimeter=0;" parent="1" source="A1wWBjNQIWdNoJpYyP1X-30" target="A1wWBjNQIWdNoJpYyP1X-33" edge="1">
          <mxGeometry width="160" relative="1" as="geometry">
            <mxPoint x="300" y="300" as="sourcePoint" />
            <mxPoint x="460" y="300" as="targetPoint" />
          </mxGeometry>
        </mxCell>
        <mxCell id="A1wWBjNQIWdNoJpYyP1X-39" value="&amp;lt;&amp;lt;include&amp;gt;&amp;gt;" style="edgeStyle=none;html=1;endArrow=open;verticalAlign=bottom;dashed=1;labelBackgroundColor=none;rounded=0;entryX=0.5;entryY=1;entryDx=0;entryDy=0;exitX=0;exitY=0;exitDx=0;exitDy=0;" parent="1" source="A1wWBjNQIWdNoJpYyP1X-33" target="A1wWBjNQIWdNoJpYyP1X-32" edge="1">
          <mxGeometry width="160" relative="1" as="geometry">
            <mxPoint x="300" y="300" as="sourcePoint" />
            <mxPoint x="460" y="300" as="targetPoint" />
          </mxGeometry>
        </mxCell>
        <mxCell id="A1wWBjNQIWdNoJpYyP1X-40" value="&amp;lt;&amp;lt;include&amp;gt;&amp;gt;" style="edgeStyle=none;html=1;endArrow=open;verticalAlign=bottom;dashed=1;labelBackgroundColor=none;rounded=0;entryX=0.354;entryY=0.972;entryDx=0;entryDy=0;exitX=1;exitY=0;exitDx=0;exitDy=0;entryPerimeter=0;" parent="1" source="A1wWBjNQIWdNoJpYyP1X-33" target="A1wWBjNQIWdNoJpYyP1X-34" edge="1">
          <mxGeometry width="160" relative="1" as="geometry">
            <mxPoint x="300" y="300" as="sourcePoint" />
            <mxPoint x="460" y="300" as="targetPoint" />
          </mxGeometry>
        </mxCell>
        <mxCell id="Ze8LSPRn_UsV28VfCGuE-2" value="" style="endArrow=none;html=1;rounded=0;exitX=0;exitY=0.5;exitDx=0;exitDy=0;entryX=0.5;entryY=0.5;entryDx=0;entryDy=0;entryPerimeter=0;" parent="1" source="A1wWBjNQIWdNoJpYyP1X-30" target="ZLsyZE4Ogy_-Gi288YGF-1" edge="1">
          <mxGeometry width="50" height="50" relative="1" as="geometry">
            <mxPoint x="470" y="400" as="sourcePoint" />
            <mxPoint x="60" y="300" as="targetPoint" />
          </mxGeometry>
        </mxCell>
        <mxCell id="ZLsyZE4Ogy_-Gi288YGF-1" value="BDD" style="shape=umlActor;verticalLabelPosition=bottom;verticalAlign=top;html=1;outlineConnect=0;" vertex="1" parent="1">
          <mxGeometry x="30" y="255" width="30" height="60" as="geometry" />
        </mxCell>
      </root>
    </mxGraphModel>
  </diagram>
</mxfile>
